<svg id="Layer_1" data-name="Layer 1" xmlns="http://www.w3.org/2000/svg" xmlns:xlink="http://www.w3.org/1999/xlink" viewBox="0 0 108 79.71"><defs><style>.cls-1{filter:url(#blurMe);}.cls-2{fill:#2ee53f;}.cls-3{fill:url(#linear-gradient);}.cls-4{fill:#3cbf42;}.cls-5{fill:#222;}</style><filter id="blurMe" name="blurMe"><feGaussianBlur stdDeviation="5" in="SourceGraphic"/></filter><linearGradient id="linear-gradient" x1="-1202.12" y1="587.58" x2="-1201.51" y2="586.76" gradientTransform="matrix(84.16, 0, 0, -79.71, 101199.07, 46843.83)" gradientUnits="userSpaceOnUse"><stop offset="0" stop-color="#1be12d"/><stop offset="1" stop-color="#64ee72"/></linearGradient></defs><g id="_7" data-name=" 7"><g id="Ellipse_837" data-name="Ellipse 837" class="cls-1"><ellipse class="cls-2" cx="54" cy="45" rx="45" ry="26.5"/></g><path id="Path_15088" data-name="Path 15088" class="cls-3" d="M54.08,79.7C111.4,80.73,109-1,54.08,0S-3.24,78.67,54.08,79.7Z"/><path id="Path_15090" data-name="Path 15090" class="cls-4" d="M91.61,39.79a4.71,4.71,0,0,1,0,.53,3,3,0,0,1-.11.52,3.16,3.16,0,0,1-.17.52c-.07.17-.15.33-.24.5s-.2.32-.31.47-.24.31-.37.46a5.77,5.77,0,0,1-.44.42c-.15.14-.31.27-.48.4l-.53.35a6.55,6.55,0,0,1-.58.32c-.2.09-.41.19-.62.27s-.43.16-.66.23l-.68.17a5.4,5.4,0,0,1-.7.13c-.23,0-.47.06-.71.08s-.48,0-.72,0-.48,0-.72,0-.48,0-.72-.08a5.73,5.73,0,0,1-.7-.13l-.68-.17-.65-.23c-.21-.08-.42-.17-.62-.27a6.55,6.55,0,0,1-.58-.32c-.19-.11-.37-.23-.54-.35s-.33-.26-.48-.4a4.26,4.26,0,0,1-.43-.42,5.32,5.32,0,0,1-.37-.46,3.46,3.46,0,0,1-.31-.47,4.84,4.84,0,0,1-.42-1,4.36,4.36,0,0,1-.11-.52,4.7,4.7,0,0,1,0-1.06,4.36,4.36,0,0,1,.11-.52,4.56,4.56,0,0,1,.18-.52c.07-.17.15-.33.24-.5a3.46,3.46,0,0,1,.31-.47,5.32,5.32,0,0,1,.37-.46,5.7,5.7,0,0,1,.43-.42c.15-.14.31-.27.48-.4s.35-.24.54-.35.38-.22.58-.32.41-.19.62-.27l.65-.23.68-.17a5.73,5.73,0,0,1,.7-.13c.24,0,.48-.06.72-.08s.48,0,.72,0,.48,0,.72,0,.48,0,.71.08a5.4,5.4,0,0,1,.7.13l.68.17.66.23c.21.08.41.17.62.27a6.55,6.55,0,0,1,.58.32l.53.35c.17.13.33.26.48.4a5.86,5.86,0,0,1,.44.42c.13.15.25.3.37.46s.21.31.31.47.17.33.24.5a3.16,3.16,0,0,1,.17.52,3,3,0,0,1,.11.52A4.71,4.71,0,0,1,91.61,39.79Z"/><path id="Path_15091" data-name="Path 15091" class="cls-4" d="M31.27,39.79a4.73,4.73,0,0,1,0,.53,4.35,4.35,0,0,1-.1.52,4.84,4.84,0,0,1-.42,1c-.1.16-.2.32-.31.47s-.24.31-.37.46a5.66,5.66,0,0,1-.43.42l-.49.4-.53.35c-.19.11-.38.22-.58.32s-.41.19-.62.27-.43.16-.66.23L26,45a5.4,5.4,0,0,1-.7.13c-.23,0-.47.06-.71.08s-.48,0-.72,0-.48,0-.72,0-.48,0-.72-.08a5.73,5.73,0,0,1-.7-.13l-.68-.17-.65-.23c-.21-.08-.42-.17-.62-.27a6.55,6.55,0,0,1-.58-.32c-.19-.11-.36-.23-.53-.35s-.34-.26-.49-.4a4.26,4.26,0,0,1-.43-.42,5.32,5.32,0,0,1-.37-.46,4.76,4.76,0,0,1-.31-.47,4.84,4.84,0,0,1-.42-1,4.35,4.35,0,0,1-.1-.52,3.76,3.76,0,0,1,0-1.06,4.35,4.35,0,0,1,.1-.52,4.56,4.56,0,0,1,.18-.52c.07-.17.15-.33.24-.5a4.76,4.76,0,0,1,.31-.47,5.32,5.32,0,0,1,.37-.46,5.7,5.7,0,0,1,.43-.42c.15-.14.32-.27.49-.4s.34-.24.53-.35.38-.22.58-.32.41-.19.62-.27l.65-.23.68-.17a5.73,5.73,0,0,1,.7-.13c.24,0,.48-.06.72-.08s.48,0,.72,0,.48,0,.72,0,.48,0,.71.08a5.4,5.4,0,0,1,.7.13l.68.17c.23.07.45.15.66.23s.42.17.62.27a6.55,6.55,0,0,1,.58.32l.53.35.49.4a5.7,5.7,0,0,1,.43.42c.13.15.25.3.37.46s.21.31.31.47.17.33.24.5a4.56,4.56,0,0,1,.18.52,4.35,4.35,0,0,1,.1.52A4.73,4.73,0,0,1,31.27,39.79Z"/><path id="Path_15092" data-name="Path 15092" class="cls-5" d="M66.58,28.8a4.55,4.55,0,1,0-.48,9.08h.48C73.12,38,72.84,28.68,66.58,28.8Z"/><path id="Path_15093" data-name="Path 15093" class="cls-5" d="M40.76,28.8a4.55,4.55,0,1,0-.49,9.08h.49C47.29,38,47,28.68,40.76,28.8Z"/><path id="Path_15094" data-name="Path 15094" class="cls-5" d="M78.45,25.2c-4.09-1.36-7.29-8-7.83-5.45-1,4.66,7.43,10.62,12.9,8.67a2.22,2.22,0,0,0,.41-.2,1.35,1.35,0,0,0,.32-.31C85,26.83,82.15,26.44,78.45,25.2Z"/><path id="Path_15095" data-name="Path 15095" class="cls-5" d="M29.63,25.2c-3.7,1.23-6.57,1.63-5.81,2.7a1.5,1.5,0,0,0,.73.51c5.47,2,13.9-4,12.91-8.66C36.91,17.22,33.71,23.84,29.63,25.2Z"/><path id="Path_15096" data-name="Path 15096" class="cls-5" d="M70.06,50.75c-1.37-.27-3,.84-4.24,2.46-3.11-1.92-7.69-2.4-12.15-2.45-4.82-.06-9.5.5-12,2.3-1.22-1.54-2.8-2.57-4.13-2.3-3.19.63.21,3.82,1.7,5.72s.46,6.11,2.54,4.88c1.8-1.06,2.11-3,1.62-4.89l.48,0C46.74,56,53.2,54.8,59.63,56a25,25,0,0,0,4.57.52c-.47,1.9-.15,3.78,1.63,4.83,2.08,1.23,1.06-3,2.54-4.88S73.25,51.39,70.06,50.75Z"/></g></svg>