<svg id="Layer_1" data-name="Layer 1" xmlns="http://www.w3.org/2000/svg" xmlns:xlink="http://www.w3.org/1999/xlink" viewBox="0 0 108 95.08"><defs><style>.cls-1{fill:none;}.cls-2{filter:url(#blurMe);}.cls-3{fill:#f6c878;}.cls-4{clip-path:url(#clip-path);}.cls-5{clip-path:url(#clip-path-2);}.cls-6{clip-path:url(#clip-path-3);}.cls-7{fill:url(#radial-gradient);}.cls-8{clip-path:url(#clip-path-4);}.cls-9{clip-path:url(#clip-path-5);}.cls-10{clip-path:url(#clip-path-6);}.cls-11{clip-path:url(#clip-path-7);}.cls-12{fill:url(#linear-gradient);}.cls-13{clip-path:url(#clip-path-8);}.cls-14{clip-path:url(#clip-path-9);}.cls-15{clip-path:url(#clip-path-10);}.cls-16{fill:url(#linear-gradient-2);}.cls-17{clip-path:url(#clip-path-11);}.cls-18{clip-path:url(#clip-path-12);}.cls-19{clip-path:url(#clip-path-13);}.cls-20{clip-path:url(#clip-path-14);}.cls-21{fill:url(#linear-gradient-3);}.cls-22{clip-path:url(#clip-path-15);}.cls-23{clip-path:url(#clip-path-16);}.cls-24{clip-path:url(#clip-path-17);}.cls-25{clip-path:url(#clip-path-18);}.cls-26{fill:url(#radial-gradient-2);}.cls-27{fill:#aa610b;}.cls-28{fill:#602c0f;}.cls-29{clip-path:url(#clip-path-19);}.cls-30{clip-path:url(#clip-path-20);}.cls-31{clip-path:url(#clip-path-21);}.cls-32{fill:url(#radial-gradient-3);}.cls-33{clip-path:url(#clip-path-22);}.cls-34{clip-path:url(#clip-path-23);}.cls-35{clip-path:url(#clip-path-24);}.cls-36{fill:url(#radial-gradient-4);}.cls-37{fill:#2e3442;}.cls-38{fill:#434e65;}</style><filter id="blurMe" name="blurMe"><feGaussianBlur stdDeviation="5" in="SourceGraphic"/></filter><clipPath id="clip-path"><rect id="SVGID" class="cls-1" x="13.07" width="79.75" height="79.66"/></clipPath><clipPath id="clip-path-2"><path id="SVGID-2" data-name="SVGID" class="cls-1" d="M92.82,39.83A39.88,39.88,0,1,1,52.9,0H53A39.85,39.85,0,0,1,92.82,39.83Z"/></clipPath><clipPath id="clip-path-3"><path id="SVGID-3" data-name="SVGID" class="cls-1" d="M92.82,39.83A39.88,39.88,0,1,1,52.9,0H53A39.85,39.85,0,0,1,92.82,39.83h0"/></clipPath><radialGradient id="radial-gradient" cx="-1349.99" cy="583" r="0.5" gradientTransform="matrix(79.75, 0, 0, -79.66, 107711.69, 46484.24)" gradientUnits="userSpaceOnUse"><stop offset="0" stop-color="#ffdd50"/><stop offset="0.02" stop-color="#ffdc4f"/><stop offset="0.02" stop-color="#ffdb4f"/><stop offset="0.03" stop-color="#ffdb4e"/><stop offset="0.04" stop-color="#ffda4e"/><stop offset="0.06" stop-color="#ffda4d"/><stop offset="0.07" stop-color="#ffd94d"/><stop offset="0.08" stop-color="#ffd94c"/><stop offset="0.09" stop-color="#ffd84c"/><stop offset="0.09" stop-color="#ffd84c"/><stop offset="0.1" stop-color="#ffd84c"/><stop offset="0.1" stop-color="#ffd74b"/><stop offset="0.11" stop-color="#ffd74b"/><stop offset="0.13" stop-color="#ffd64a"/><stop offset="0.14" stop-color="#ffd64a"/><stop offset="0.15" stop-color="#ffd54a"/><stop offset="0.16" stop-color="#ffd549"/><stop offset="0.17" stop-color="#ffd449"/><stop offset="0.18" stop-color="#ffd448"/><stop offset="0.2" stop-color="#ffd348"/><stop offset="0.21" stop-color="#ffd247"/><stop offset="0.23" stop-color="#ffd146"/><stop offset="0.24" stop-color="#ffd146"/><stop offset="0.25" stop-color="#ffd045"/><stop offset="0.26" stop-color="#ffd045"/><stop offset="0.27" stop-color="#ffcf44"/><stop offset="0.28" stop-color="#ffcf44"/><stop offset="0.28" stop-color="#ffcf44"/><stop offset="0.29" stop-color="#ffce44"/><stop offset="0.3" stop-color="#ffce44"/><stop offset="0.31" stop-color="#ffcd43"/><stop offset="0.32" stop-color="#ffcd43"/><stop offset="0.32" stop-color="#ffcd43"/><stop offset="0.33" stop-color="#ffcc42"/><stop offset="0.34" stop-color="#ffcc42"/><stop offset="0.35" stop-color="#ffcb41"/><stop offset="0.35" stop-color="#ffcb41"/><stop offset="0.36" stop-color="#ffca41"/><stop offset="0.38" stop-color="#ffca41"/><stop offset="0.39" stop-color="#ffca40"/><stop offset="0.4" stop-color="#ffc93f"/><stop offset="0.41" stop-color="#ffc93f"/><stop offset="0.41" stop-color="#ffc83f"/><stop offset="0.42" stop-color="#ffc83f"/><stop offset="0.43" stop-color="#ffc73e"/><stop offset="0.44" stop-color="#ffc73e"/><stop offset="0.45" stop-color="#ffc73d"/><stop offset="0.46" stop-color="#ffc63d"/><stop offset="0.48" stop-color="#ffc53c"/><stop offset="0.49" stop-color="#ffc53c"/><stop offset="0.51" stop-color="#ffc53b"/><stop offset="0.51" stop-color="#ffc43b"/><stop offset="0.52" stop-color="#ffc43b"/><stop offset="0.52" stop-color="#ffc33b"/><stop offset="0.53" stop-color="#ffc33a"/><stop offset="0.54" stop-color="#ffc23a"/><stop offset="0.56" stop-color="#ffc239"/><stop offset="0.57" stop-color="#ffc139"/><stop offset="0.58" stop-color="#ffc138"/><stop offset="0.59" stop-color="#ffc138"/><stop offset="0.59" stop-color="#ffc038"/><stop offset="0.6" stop-color="#ffc038"/><stop offset="0.6" stop-color="#ffbf37"/><stop offset="0.61" stop-color="#ffbf37"/><stop offset="0.63" stop-color="#ffbe36"/><stop offset="0.64" stop-color="#ffbe36"/><stop offset="0.65" stop-color="#ffbd36"/><stop offset="0.65" stop-color="#ffbc36"/><stop offset="0.67" stop-color="#ffbc35"/><stop offset="0.68" stop-color="#ffbb34"/><stop offset="0.69" stop-color="#ffbb34"/><stop offset="0.69" stop-color="#fb3"/><stop offset="0.71" stop-color="#ffba33"/><stop offset="0.72" stop-color="#ffba33"/><stop offset="0.73" stop-color="#ffb932"/><stop offset="0.74" stop-color="#ffb932"/><stop offset="0.76" stop-color="#ffb831"/><stop offset="0.77" stop-color="#ffb731"/><stop offset="0.78" stop-color="#ffb730"/><stop offset="0.79" stop-color="#ffb630"/><stop offset="0.81" stop-color="#ffb62f"/><stop offset="0.82" stop-color="#ffb52f"/><stop offset="0.82" stop-color="#ffb52e"/><stop offset="0.84" stop-color="#ffb42e"/><stop offset="0.85" stop-color="#ffb32d"/><stop offset="0.87" stop-color="#ffb32d"/><stop offset="0.88" stop-color="#ffb32c"/><stop offset="0.89" stop-color="#ffb22c"/><stop offset="0.89" stop-color="#ffb22c"/><stop offset="0.9" stop-color="#ffb12c"/><stop offset="0.91" stop-color="#ffb12b"/><stop offset="0.92" stop-color="#ffb12b"/><stop offset="0.93" stop-color="#ffb02a"/><stop offset="0.94" stop-color="#ffaf2a"/><stop offset="0.95" stop-color="#ffae29"/><stop offset="0.96" stop-color="#ffad28"/><stop offset="1" stop-color="#ffad28"/></radialGradient><clipPath id="clip-path-4"><rect id="SVGID-4" data-name="SVGID" class="cls-1" x="48.61" y="57" width="40.32" height="19.78"/></clipPath><clipPath id="clip-path-5"><path id="SVGID-5" data-name="SVGID" class="cls-1" d="M88.9,57A29.43,29.43,0,0,1,86,61.67c-6.49,8.56-18.59,14.11-27.77,11.4-1.35-.4-6.19-1.82-7.93-5.87a7.07,7.07,0,0,1-.64-2.38,3.66,3.66,0,0,0-.6.89,5.4,5.4,0,0,0,.28,4.38c1.74,4,6.58,5.47,7.93,5.87,5.18,1.52,11.29.42,16.8-2.36A40.06,40.06,0,0,0,88.9,57Z"/></clipPath><clipPath id="clip-path-6"><path id="SVGID-6" data-name="SVGID" class="cls-1" d="M88.9,57A29.43,29.43,0,0,1,86,61.67c-6.49,8.56-18.59,14.11-27.77,11.4-1.35-.4-6.19-1.82-7.93-5.87a7.07,7.07,0,0,1-.64-2.38,3.66,3.66,0,0,0-.6.89,5.4,5.4,0,0,0,.28,4.38c1.74,4,6.58,5.47,7.93,5.87,5.18,1.52,11.29.42,16.8-2.36A40.09,40.09,0,0,0,88.91,57"/></clipPath><clipPath id="clip-path-7"><rect id="SVGID-7" data-name="SVGID" class="cls-1" x="45.83" y="48.21" width="45.47" height="38.07" transform="translate(-24.43 43.25) rotate(-29.97)"/></clipPath><linearGradient id="linear-gradient" x1="-1353.29" y1="582.38" x2="-1353.28" y2="582.38" gradientTransform="matrix(57.43, 0, 0, -54.63, 77674, 31881.29)" gradientUnits="userSpaceOnUse"><stop offset="0" stop-color="#efaa17"/><stop offset="0.13" stop-color="#efaa17"/><stop offset="0.19" stop-color="#efaa17"/><stop offset="0.2" stop-color="#efaa17"/><stop offset="0.22" stop-color="#efa917"/><stop offset="0.23" stop-color="#efa918"/><stop offset="0.23" stop-color="#efa818"/><stop offset="0.25" stop-color="#efa718"/><stop offset="0.27" stop-color="#efa719"/><stop offset="0.27" stop-color="#efa619"/><stop offset="0.28" stop-color="#efa51a"/><stop offset="0.3" stop-color="#eea51a"/><stop offset="0.31" stop-color="#eea41b"/><stop offset="0.32" stop-color="#eea31b"/><stop offset="0.33" stop-color="#eea21c"/><stop offset="0.34" stop-color="#eea21c"/><stop offset="0.35" stop-color="#eea11d"/><stop offset="0.36" stop-color="#eea01d"/><stop offset="0.38" stop-color="#eea01d"/><stop offset="0.39" stop-color="#eea01e"/><stop offset="0.41" stop-color="#ee9f1f"/><stop offset="0.42" stop-color="#ee9e1f"/><stop offset="0.44" stop-color="#ee9d20"/><stop offset="0.45" stop-color="#ee9c20"/><stop offset="0.45" stop-color="#ee9c20"/><stop offset="0.47" stop-color="#ee9b21"/><stop offset="0.48" stop-color="#ed9a22"/><stop offset="0.48" stop-color="#ed9a22"/><stop offset="0.5" stop-color="#ed9922"/><stop offset="0.52" stop-color="#ed9823"/><stop offset="0.52" stop-color="#ed9724"/><stop offset="0.53" stop-color="#ed9724"/><stop offset="0.54" stop-color="#ed9624"/><stop offset="0.55" stop-color="#ed9624"/><stop offset="0.56" stop-color="#ed9525"/><stop offset="0.57" stop-color="#ed9425"/><stop offset="0.58" stop-color="#ed9425"/><stop offset="0.59" stop-color="#ed9326"/><stop offset="0.59" stop-color="#ed9326"/><stop offset="0.61" stop-color="#ed9227"/><stop offset="0.62" stop-color="#ed9127"/><stop offset="0.63" stop-color="#ed9127"/><stop offset="0.64" stop-color="#ed9028"/><stop offset="0.65" stop-color="#ec8f29"/><stop offset="0.66" stop-color="#ec8f29"/><stop offset="0.66" stop-color="#ec8e29"/><stop offset="0.67" stop-color="#ec8e29"/><stop offset="0.69" stop-color="#ec8d2a"/><stop offset="0.69" stop-color="#ec8c2a"/><stop offset="0.7" stop-color="#ec8c2a"/><stop offset="0.71" stop-color="#ec8b2b"/><stop offset="0.72" stop-color="#ec8b2b"/><stop offset="0.75" stop-color="#ec8a2c"/><stop offset="1" stop-color="#ec8a2c"/></linearGradient><clipPath id="clip-path-8"><rect id="SVGID-8" data-name="SVGID" class="cls-1" x="13.2" y="43.35" width="36.96" height="16.74"/></clipPath><clipPath id="clip-path-9"><path id="SVGID-9" data-name="SVGID" class="cls-1" d="M30.65,59.56c7.2,1.33,16.26-.21,19.51-3.68-4.2,2.17-11.23,3-17,1.9-11.4-2.1-17.95-11.36-19.92-14.43a39,39,0,0,0,1.12,6.52C17.69,53.66,23.11,58.17,30.65,59.56Z"/></clipPath><clipPath id="clip-path-10"><path id="SVGID-10" data-name="SVGID" class="cls-1" d="M30.65,59.56c7.2,1.33,16.26-.21,19.51-3.68-4.2,2.17-11.23,3-17,1.9-11.4-2.1-17.95-11.36-19.92-14.43a39,39,0,0,0,1.12,6.52,29.32,29.32,0,0,0,16.33,9.7"/></clipPath><linearGradient id="linear-gradient-2" x1="-1355.96" y1="577.93" x2="-1355.95" y2="577.93" gradientTransform="matrix(36.96, 0, 0, -16.81, 50073.37, 9767.33)" gradientUnits="userSpaceOnUse"><stop offset="0" stop-color="#efaa17"/><stop offset="0.03" stop-color="#efaa17"/><stop offset="0.06" stop-color="#efa918"/><stop offset="0.08" stop-color="#efa818"/><stop offset="0.09" stop-color="#efa819"/><stop offset="0.13" stop-color="#efa719"/><stop offset="0.16" stop-color="#efa61a"/><stop offset="0.17" stop-color="#efa51a"/><stop offset="0.19" stop-color="#eea41b"/><stop offset="0.2" stop-color="#eea41b"/><stop offset="0.22" stop-color="#eea31b"/><stop offset="0.23" stop-color="#eea31c"/><stop offset="0.25" stop-color="#eea21c"/><stop offset="0.27" stop-color="#eea21c"/><stop offset="0.28" stop-color="#eea11d"/><stop offset="0.3" stop-color="#eea11d"/><stop offset="0.31" stop-color="#eea01d"/><stop offset="0.34" stop-color="#ee9f1e"/><stop offset="0.36" stop-color="#ee9f1e"/><stop offset="0.38" stop-color="#ee9f1f"/><stop offset="0.41" stop-color="#ee9e1f"/><stop offset="0.44" stop-color="#ee9d1f"/><stop offset="0.47" stop-color="#ee9c20"/><stop offset="0.48" stop-color="#ee9b21"/><stop offset="0.5" stop-color="#ee9a21"/><stop offset="0.52" stop-color="#ed9a22"/><stop offset="0.53" stop-color="#ed9922"/><stop offset="0.55" stop-color="#ed9922"/><stop offset="0.56" stop-color="#ed9823"/><stop offset="0.58" stop-color="#ed9823"/><stop offset="0.59" stop-color="#ed9723"/><stop offset="0.61" stop-color="#ed9724"/><stop offset="0.63" stop-color="#ed9624"/><stop offset="0.64" stop-color="#ed9624"/><stop offset="0.66" stop-color="#ed9525"/><stop offset="0.67" stop-color="#ed9525"/><stop offset="0.69" stop-color="#ed9425"/><stop offset="0.7" stop-color="#ed9426"/><stop offset="0.72" stop-color="#ed9326"/><stop offset="0.73" stop-color="#ed9326"/><stop offset="0.75" stop-color="#ed9227"/><stop offset="0.78" stop-color="#ed9227"/><stop offset="0.8" stop-color="#ed9127"/><stop offset="0.81" stop-color="#ed9128"/><stop offset="0.83" stop-color="#ed9028"/><stop offset="0.84" stop-color="#ed8f28"/><stop offset="0.86" stop-color="#ec8f29"/><stop offset="0.88" stop-color="#ec8e29"/><stop offset="0.89" stop-color="#ec8e29"/><stop offset="0.91" stop-color="#ec8d2a"/><stop offset="0.92" stop-color="#ec8d2a"/><stop offset="0.94" stop-color="#ec8c2a"/><stop offset="0.95" stop-color="#ec8c2b"/><stop offset="0.97" stop-color="#ec8b2b"/><stop offset="1" stop-color="#ec8b2c"/></linearGradient><clipPath id="clip-path-11"><rect id="SVGID-11" data-name="SVGID" class="cls-1" x="15.75" y="52.61" width="29.01" height="8.79"/></clipPath><clipPath id="clip-path-12"><path id="SVGID-12" data-name="SVGID" class="cls-1" d="M44.35,53.57c-2.62,5.25-12.22,6-18.52,4.9a26.06,26.06,0,0,1-9.83-4l-.21-.05c.21.54.45,1.11.71,1.69s.63,1.35.95,2a25.49,25.49,0,0,0,8,2.88c6.3,1.13,15.9.35,18.52-4.9a8,8,0,0,0,.8-3.43A8,8,0,0,1,44.35,53.57Z"/></clipPath><clipPath id="clip-path-13"><path id="SVGID-13" data-name="SVGID" class="cls-1" d="M44.35,53.57c-2.62,5.25-12.22,6-18.52,4.9a26.06,26.06,0,0,1-9.83-4l-.21-.05c.21.54.45,1.11.71,1.69s.63,1.35.95,2a25.49,25.49,0,0,0,8,2.88c6.3,1.13,15.9.35,18.52-4.9a8,8,0,0,0,.8-3.43,8,8,0,0,1-.39,1"/></clipPath><clipPath id="clip-path-14"><rect id="SVGID-14" data-name="SVGID" class="cls-1" x="18.94" y="42.43" width="22.67" height="29.81" transform="translate(-34.52 54.9) rotate(-60.02)"/></clipPath><linearGradient id="linear-gradient-3" x1="-1356.01" y1="581.17" x2="-1356.01" y2="581.17" gradientTransform="matrix(36.59, 0, 0, -33.85, 49564.25, 19728.35)" gradientUnits="userSpaceOnUse"><stop offset="0" stop-color="#efaa17"/><stop offset="0.03" stop-color="#efaa17"/><stop offset="0.05" stop-color="#efa918"/><stop offset="0.06" stop-color="#efa818"/><stop offset="0.08" stop-color="#efa818"/><stop offset="0.09" stop-color="#efa719"/><stop offset="0.11" stop-color="#efa719"/><stop offset="0.13" stop-color="#efa61a"/><stop offset="0.16" stop-color="#efa51a"/><stop offset="0.19" stop-color="#eea41b"/><stop offset="0.2" stop-color="#eea31c"/><stop offset="0.2" stop-color="#eea31c"/><stop offset="0.22" stop-color="#eea21c"/><stop offset="0.23" stop-color="#eea21c"/><stop offset="0.25" stop-color="#eea11d"/><stop offset="0.27" stop-color="#eea01d"/><stop offset="0.28" stop-color="#eea01e"/><stop offset="0.31" stop-color="#ee9f1e"/><stop offset="0.33" stop-color="#ee9e1f"/><stop offset="0.34" stop-color="#ee9d1f"/><stop offset="0.36" stop-color="#ee9d20"/><stop offset="0.37" stop-color="#ee9c20"/><stop offset="0.38" stop-color="#ee9c20"/><stop offset="0.41" stop-color="#ee9b21"/><stop offset="0.42" stop-color="#ee9a21"/><stop offset="0.44" stop-color="#ed9a22"/><stop offset="0.45" stop-color="#ed9922"/><stop offset="0.47" stop-color="#ed9823"/><stop offset="0.48" stop-color="#ed9823"/><stop offset="0.5" stop-color="#ed9723"/><stop offset="0.52" stop-color="#ed9724"/><stop offset="0.53" stop-color="#ed9624"/><stop offset="0.56" stop-color="#ed9525"/><stop offset="0.58" stop-color="#ed9425"/><stop offset="0.59" stop-color="#ed9325"/><stop offset="0.61" stop-color="#ed9326"/><stop offset="0.62" stop-color="#ed9326"/><stop offset="0.63" stop-color="#ed9227"/><stop offset="0.66" stop-color="#ed9227"/><stop offset="0.66" stop-color="#ed9127"/><stop offset="0.67" stop-color="#ed9028"/><stop offset="0.69" stop-color="#ed9028"/><stop offset="0.7" stop-color="#ec9028"/><stop offset="0.72" stop-color="#ec8f29"/><stop offset="0.73" stop-color="#ec8f29"/><stop offset="0.74" stop-color="#ec8e29"/><stop offset="0.75" stop-color="#ec8d2a"/><stop offset="0.78" stop-color="#ec8d2a"/><stop offset="0.79" stop-color="#ec8c2b"/><stop offset="0.8" stop-color="#ec8c2b"/><stop offset="0.81" stop-color="#ec8b2b"/><stop offset="0.83" stop-color="#ec8b2b"/><stop offset="0.84" stop-color="#ec8a2c"/><stop offset="0.88" stop-color="#ec8a2c"/><stop offset="1" stop-color="#ec8a2c"/></linearGradient><clipPath id="clip-path-15"><rect id="SVGID-15" data-name="SVGID" class="cls-1" x="17.54" y="28.84" width="55.37" height="49.04"/></clipPath><clipPath id="clip-path-16"><path id="SVGID-16" data-name="SVGID" class="cls-1" d="M72.06,56.31c.42-1.44,1.93-6.6-.82-11.74s-8-6.83-10-7.29a16.59,16.59,0,0,0-11.34,1.48,2.48,2.48,0,0,1-3.29-1,16.58,16.58,0,0,0-8.51-7.64c-1.87-.71-7.11-2.32-12.34.38s-6.86,7.79-7.33,9.22c-2.53,7.7,1.2,15.07,3.3,19.21C23,61.33,25,64.05,29,69.49c2.06,2.81,3.91,5.21,5.41,7.11A3.32,3.32,0,0,0,38,77.72c2.31-.71,5.2-1.65,8.49-2.8,6.37-2.22,9.56-3.33,12-4.64C62.52,68.05,69.78,64.09,72.06,56.31Z"/></clipPath><clipPath id="clip-path-17"><path id="SVGID-17" data-name="SVGID" class="cls-1" d="M72.06,56.31c.42-1.44,1.93-6.6-.82-11.74s-8-6.83-10-7.29a16.59,16.59,0,0,0-11.34,1.48,2.48,2.48,0,0,1-3.29-1,16.58,16.58,0,0,0-8.51-7.64c-1.87-.71-7.11-2.32-12.34.38s-6.86,7.79-7.33,9.22c-2.53,7.7,1.2,15.07,3.3,19.21C23,61.33,25,64.05,29,69.49c2.06,2.81,3.91,5.21,5.41,7.11A3.32,3.32,0,0,0,38,77.72c2.31-.71,5.2-1.65,8.49-2.8,6.37-2.22,9.56-3.33,12-4.64,4.07-2.22,11.33-6.19,13.61-14"/></clipPath><clipPath id="clip-path-18"><rect id="SVGID-18" data-name="SVGID" class="cls-1" x="12.32" y="17.76" width="65.29" height="70.38" transform="translate(-18.94 80.18) rotate(-72.74)"/></clipPath><radialGradient id="radial-gradient-2" cx="-1349.44" cy="582.07" r="0.29" gradientTransform="matrix(76.79, 23.87, 23.8, -76.68, 89780.87, 76921.73)" gradientUnits="userSpaceOnUse"><stop offset="0" stop-color="#f85675"/><stop offset="0.01" stop-color="#f85674"/><stop offset="0.01" stop-color="#f85574"/><stop offset="0.02" stop-color="#f75573"/><stop offset="0.02" stop-color="#f75573"/><stop offset="0.02" stop-color="#f75572"/><stop offset="0.04" stop-color="#f65472"/><stop offset="0.05" stop-color="#f65371"/><stop offset="0.05" stop-color="#f65371"/><stop offset="0.06" stop-color="#f65371"/><stop offset="0.06" stop-color="#f65270"/><stop offset="0.06" stop-color="#f55270"/><stop offset="0.07" stop-color="#f5526f"/><stop offset="0.08" stop-color="#f5526e"/><stop offset="0.09" stop-color="#f5516e"/><stop offset="0.1" stop-color="#f4506e"/><stop offset="0.1" stop-color="#f4506d"/><stop offset="0.11" stop-color="#f44f6d"/><stop offset="0.11" stop-color="#f34f6c"/><stop offset="0.13" stop-color="#f34e6c"/><stop offset="0.14" stop-color="#f34e6b"/><stop offset="0.14" stop-color="#f34d6b"/><stop offset="0.14" stop-color="#f34d6a"/><stop offset="0.15" stop-color="#f24c6a"/><stop offset="0.16" stop-color="#f24b6a"/><stop offset="0.17" stop-color="#f14b69"/><stop offset="0.18" stop-color="#f14b68"/><stop offset="0.19" stop-color="#f14a68"/><stop offset="0.19" stop-color="#f14a67"/><stop offset="0.2" stop-color="#f14966"/><stop offset="0.21" stop-color="#f04866"/><stop offset="0.22" stop-color="#f04866"/><stop offset="0.22" stop-color="#f04865"/><stop offset="0.23" stop-color="#f04865"/><stop offset="0.23" stop-color="#ef4764"/><stop offset="0.24" stop-color="#ef4663"/><stop offset="0.25" stop-color="#ef4663"/><stop offset="0.26" stop-color="#ee4662"/><stop offset="0.27" stop-color="#ee4562"/><stop offset="0.28" stop-color="#ee4561"/><stop offset="0.28" stop-color="#ee4461"/><stop offset="0.29" stop-color="#ed4460"/><stop offset="0.3" stop-color="#ed4360"/><stop offset="0.31" stop-color="#ed435f"/><stop offset="0.31" stop-color="#ed425f"/><stop offset="0.32" stop-color="#ed425e"/><stop offset="0.33" stop-color="#ec415e"/><stop offset="0.34" stop-color="#ec415d"/><stop offset="0.34" stop-color="#ec405d"/><stop offset="0.35" stop-color="#eb405c"/><stop offset="0.36" stop-color="#eb3f5c"/><stop offset="0.37" stop-color="#eb3f5b"/><stop offset="0.38" stop-color="#eb3e5b"/><stop offset="0.38" stop-color="#ea3e5a"/><stop offset="0.39" stop-color="#ea3d5a"/><stop offset="0.4" stop-color="#ea3d59"/><stop offset="0.4" stop-color="#ea3c58"/><stop offset="0.41" stop-color="#ea3c58"/><stop offset="0.42" stop-color="#e93b57"/><stop offset="0.43" stop-color="#e93b57"/><stop offset="0.43" stop-color="#e93b57"/><stop offset="0.44" stop-color="#e83a56"/><stop offset="0.45" stop-color="#e83a56"/><stop offset="0.45" stop-color="#e83955"/><stop offset="0.47" stop-color="#e73854"/><stop offset="0.48" stop-color="#e73854"/><stop offset="0.48" stop-color="#e73753"/><stop offset="0.49" stop-color="#e63652"/><stop offset="0.51" stop-color="#e63652"/><stop offset="0.51" stop-color="#e63551"/><stop offset="0.52" stop-color="#e63551"/><stop offset="0.52" stop-color="#e53551"/><stop offset="0.52" stop-color="#e53450"/><stop offset="0.53" stop-color="#e53450"/><stop offset="0.54" stop-color="#e5344f"/><stop offset="0.55" stop-color="#e4334f"/><stop offset="0.56" stop-color="#e4324e"/><stop offset="0.57" stop-color="#e4314e"/><stop offset="0.57" stop-color="#e4314d"/><stop offset="0.57" stop-color="#e3314c"/><stop offset="0.59" stop-color="#e3304b"/><stop offset="0.6" stop-color="#e3304b"/><stop offset="0.6" stop-color="#e22f4b"/><stop offset="0.6" stop-color="#e22f4b"/><stop offset="0.61" stop-color="#e22e4a"/><stop offset="0.62" stop-color="#e22e49"/><stop offset="0.63" stop-color="#e12d49"/><stop offset="0.64" stop-color="#e12d49"/><stop offset="0.65" stop-color="#e12d48"/><stop offset="0.65" stop-color="#e12c47"/><stop offset="0.66" stop-color="#e12c47"/><stop offset="0.66" stop-color="#e02c47"/><stop offset="0.67" stop-color="#e02b46"/><stop offset="0.68" stop-color="#e02b46"/><stop offset="0.69" stop-color="#e02a45"/><stop offset="0.69" stop-color="#df2a45"/><stop offset="0.71" stop-color="#df2944"/><stop offset="0.72" stop-color="#df2843"/><stop offset="0.73" stop-color="#de2843"/><stop offset="0.73" stop-color="#de2742"/><stop offset="0.74" stop-color="#de2742"/><stop offset="0.75" stop-color="#de2641"/><stop offset="0.75" stop-color="#dd2540"/><stop offset="0.76" stop-color="#dd2540"/><stop offset="0.76" stop-color="#dd253f"/><stop offset="0.77" stop-color="#dd243f"/><stop offset="0.78" stop-color="#dc243f"/><stop offset="0.78" stop-color="#dc233e"/><stop offset="0.79" stop-color="#dc223d"/><stop offset="0.81" stop-color="#dc223d"/><stop offset="0.81" stop-color="#db223c"/><stop offset="0.82" stop-color="#db213c"/><stop offset="0.83" stop-color="#db213b"/><stop offset="0.84" stop-color="#da203b"/><stop offset="0.84" stop-color="#da203a"/><stop offset="0.85" stop-color="#da1f39"/><stop offset="0.87" stop-color="#d91e39"/><stop offset="0.88" stop-color="#d91d38"/><stop offset="0.88" stop-color="#d91d38"/><stop offset="0.89" stop-color="#d91d37"/><stop offset="0.89" stop-color="#d91d37"/><stop offset="0.9" stop-color="#d81d37"/><stop offset="0.9" stop-color="#d81c36"/><stop offset="0.9" stop-color="#d81c36"/><stop offset="0.91" stop-color="#d81b36"/><stop offset="0.92" stop-color="#d71b35"/><stop offset="0.93" stop-color="#d71a35"/><stop offset="0.94" stop-color="#d71a34"/><stop offset="0.94" stop-color="#d71933"/><stop offset="0.95" stop-color="#d61933"/><stop offset="0.96" stop-color="#d61832"/><stop offset="0.96" stop-color="#d61731"/><stop offset="0.97" stop-color="#d61731"/><stop offset="0.98" stop-color="#d51731"/><stop offset="0.99" stop-color="#d51630"/><stop offset="1" stop-color="#d51630"/></radialGradient><clipPath id="clip-path-19"><rect id="SVGID-19" data-name="SVGID" class="cls-1" x="13" y="32.67" width="32.29" height="26.25"/></clipPath><clipPath id="clip-path-20"><path id="SVGID-20" data-name="SVGID" class="cls-1" d="M13.7,32.67a28.65,28.65,0,0,0,12.17,7.2,23.67,23.67,0,0,0,7.38,1.06c2.53-.08,5.23-1.55,6.28-.35a1.32,1.32,0,0,1,.32.62c.26,1.25-1.29,2.83-3.85,4.08l4.4,1c2.91.68,3.5.85,4,1.38,1.25,1.37.87,4.14,0,5.9-2.62,5.25-12.22,6-18.52,4.9a26,26,0,0,1-9.84-4A36.78,36.78,0,0,1,13.7,32.67Z"/></clipPath><clipPath id="clip-path-21"><path id="SVGID-21" data-name="SVGID" class="cls-1" d="M13.7,32.67a28.65,28.65,0,0,0,12.17,7.2,23.67,23.67,0,0,0,7.38,1.06c2.53-.08,5.23-1.55,6.28-.35a1.32,1.32,0,0,1,.32.62c.26,1.25-1.29,2.83-3.85,4.08l4.4,1c2.91.68,3.5.85,4,1.38,1.25,1.37.87,4.14,0,5.9-2.62,5.25-12.22,6-18.52,4.9a26,26,0,0,1-9.84-4A36.78,36.78,0,0,1,13.7,32.67"/></clipPath><radialGradient id="radial-gradient-3" cx="-1356.75" cy="580.23" r="0.56" gradientTransform="matrix(26.27, 0, 0, -26.23, 35656.24, 15264.04)" gradientUnits="userSpaceOnUse"><stop offset="0" stop-color="#fdd74a"/><stop offset="0.06" stop-color="#fdd74a"/><stop offset="0.07" stop-color="#fdd649"/><stop offset="0.1" stop-color="#fdd649"/><stop offset="0.1" stop-color="#fdd548"/><stop offset="0.11" stop-color="#fdd548"/><stop offset="0.11" stop-color="#fdd448"/><stop offset="0.13" stop-color="#fdd448"/><stop offset="0.14" stop-color="#fdd448"/><stop offset="0.14" stop-color="#fdd347"/><stop offset="0.16" stop-color="#fdd246"/><stop offset="0.19" stop-color="#fdd145"/><stop offset="0.2" stop-color="#fdd145"/><stop offset="0.21" stop-color="#fdd045"/><stop offset="0.22" stop-color="#fdd044"/><stop offset="0.23" stop-color="#fdcf44"/><stop offset="0.25" stop-color="#fdce43"/><stop offset="0.26" stop-color="#fdce42"/><stop offset="0.28" stop-color="#fdcd42"/><stop offset="0.3" stop-color="#fdcd42"/><stop offset="0.3" stop-color="#fecc41"/><stop offset="0.31" stop-color="#fecc41"/><stop offset="0.32" stop-color="#fecb40"/><stop offset="0.33" stop-color="#fecb40"/><stop offset="0.34" stop-color="#fecb40"/><stop offset="0.34" stop-color="#feca3f"/><stop offset="0.35" stop-color="#feca3f"/><stop offset="0.36" stop-color="#fec93f"/><stop offset="0.37" stop-color="#fec93f"/><stop offset="0.38" stop-color="#fec83e"/><stop offset="0.4" stop-color="#fec83e"/><stop offset="0.41" stop-color="#fec73d"/><stop offset="0.43" stop-color="#fec63c"/><stop offset="0.44" stop-color="#fec53c"/><stop offset="0.46" stop-color="#fec53b"/><stop offset="0.47" stop-color="#fec53b"/><stop offset="0.48" stop-color="#fec43b"/><stop offset="0.49" stop-color="#fec33a"/><stop offset="0.5" stop-color="#fec33a"/><stop offset="0.52" stop-color="#fec33a"/><stop offset="0.52" stop-color="#fec239"/><stop offset="0.53" stop-color="#fec239"/><stop offset="0.54" stop-color="#fec138"/><stop offset="0.56" stop-color="#fec138"/><stop offset="0.57" stop-color="#fec037"/><stop offset="0.58" stop-color="#fec037"/><stop offset="0.59" stop-color="#fec037"/><stop offset="0.59" stop-color="#febf37"/><stop offset="0.6" stop-color="#febf37"/><stop offset="0.6" stop-color="#febe36"/><stop offset="0.61" stop-color="#febe36"/><stop offset="0.63" stop-color="#febd35"/><stop offset="0.64" stop-color="#febd35"/><stop offset="0.65" stop-color="#febc34"/><stop offset="0.65" stop-color="#febb34"/><stop offset="0.67" stop-color="#febb34"/><stop offset="0.68" stop-color="#febb33"/><stop offset="0.69" stop-color="#febb33"/><stop offset="0.69" stop-color="#feba32"/><stop offset="0.71" stop-color="#feb932"/><stop offset="0.73" stop-color="#feb931"/><stop offset="0.74" stop-color="#feb831"/><stop offset="0.76" stop-color="#ffb730"/><stop offset="0.77" stop-color="#ffb730"/><stop offset="0.78" stop-color="#ffb630"/><stop offset="0.79" stop-color="#ffb62f"/><stop offset="0.81" stop-color="#ffb52f"/><stop offset="0.82" stop-color="#ffb52e"/><stop offset="0.82" stop-color="#ffb52d"/><stop offset="0.84" stop-color="#ffb42d"/><stop offset="0.85" stop-color="#ffb32d"/><stop offset="0.87" stop-color="#ffb22c"/><stop offset="0.88" stop-color="#ffb22c"/><stop offset="0.9" stop-color="#ffb12c"/><stop offset="0.9" stop-color="#ffb12b"/><stop offset="0.9" stop-color="#ffb02b"/><stop offset="0.93" stop-color="#ffb02a"/><stop offset="0.94" stop-color="#ffaf2a"/><stop offset="0.95" stop-color="#ffae29"/><stop offset="0.96" stop-color="#ffad28"/><stop offset="1" stop-color="#ffad28"/></radialGradient><clipPath id="clip-path-22"><rect id="SVGID-22" data-name="SVGID" class="cls-1" x="49.57" y="37.36" width="43.3" height="36.54"/></clipPath><clipPath id="clip-path-23"><path id="SVGID-23" data-name="SVGID" class="cls-1" d="M92,48.21a34.55,34.55,0,0,1-5.91,13.46c-6.49,8.55-18.59,14.11-27.78,11.4-1.34-.4-6.18-1.82-7.93-5.87a5.48,5.48,0,0,1-.28-4.38c1-2,3.6-2.63,4.91-2.93a10.67,10.67,0,0,1,2.75-.28c-.9-.57-1.64-1.09-2.2-1.51-1.13-.85-1.49-1.24-1.64-1.79a2.15,2.15,0,0,1,0-1.23c.62-1.9,10.17-.73,11.68-.55,5.7.68,14.38-2,27.23-17.17A38.4,38.4,0,0,1,92,48.21Z"/></clipPath><clipPath id="clip-path-24"><path id="SVGID-24" data-name="SVGID" class="cls-1" d="M92,48.21a34.55,34.55,0,0,1-5.91,13.46c-6.49,8.55-18.59,14.11-27.78,11.4-1.34-.4-6.18-1.82-7.93-5.87a5.48,5.48,0,0,1-.28-4.38c1-2,3.6-2.63,4.91-2.93a10.67,10.67,0,0,1,2.75-.28c-.9-.57-1.64-1.09-2.2-1.51-1.13-.85-1.49-1.24-1.64-1.79a2.15,2.15,0,0,1,0-1.23c.62-1.9,10.17-.73,11.68-.55,5.7.68,14.38-2,27.23-17.17A38.4,38.4,0,0,1,92,48.21"/></clipPath><radialGradient id="radial-gradient-4" cx="-1353.88" cy="581.25" r="0.34" gradientTransform="matrix(36.55, 0, 0, -36.5, 49531.8, 21276.28)" xlink:href="#radial-gradient-3"/></defs><g id="_8" data-name=" 8"><g id="Ellipse_838" data-name="Ellipse 838" class="cls-2"><ellipse class="cls-3" cx="54" cy="42" rx="45" ry="26.5"/></g><g class="cls-4"><g id="Group_16190" data-name="Group 16190"><g class="cls-5"><g id="Group_16189" data-name="Group 16189"><g class="cls-6"><g id="Group_16188" data-name="Group 16188"><path id="Path_15097" data-name="Path 15097" class="cls-7" d="M13.07,0V79.66H92.82V0Z"/></g></g></g></g></g></g><g class="cls-8"><g id="Group_16194" data-name="Group 16194"><g class="cls-9"><g id="Group_16193" data-name="Group 16193"><g class="cls-10"><g id="Group_16192" data-name="Group 16192"><g class="cls-11"><g id="Group_16191" data-name="Group 16191"><path id="Path_15101" data-name="Path 15101" class="cls-12" d="M78.83,39.58,40,62,58.68,94.21,97.47,71.84Z"/></g></g></g></g></g></g></g></g><g class="cls-13"><g id="Group_16197" data-name="Group 16197"><g class="cls-14"><g id="Group_16196" data-name="Group 16196"><g class="cls-15"><g id="Group_16195" data-name="Group 16195"><path id="Path_15106" data-name="Path 15106" class="cls-16" d="M50.16,43.35h-37V60.16h37Z"/></g></g></g></g></g></g><g class="cls-17"><g id="Group_16201" data-name="Group 16201"><g class="cls-18"><g id="Group_16200" data-name="Group 16200"><g class="cls-19"><g id="Group_16199" data-name="Group 16199"><g class="cls-20"><g id="Group_16198" data-name="Group 16198"><path id="Path_15110" data-name="Path 15110" class="cls-21" d="M48.57,54.81,23,40.08,12,59.2,37.52,73.93Z"/></g></g></g></g></g></g></g></g><g class="cls-22"><g id="Group_16205" data-name="Group 16205"><g class="cls-23"><g id="Group_16204" data-name="Group 16204"><g class="cls-24"><g id="Group_16203" data-name="Group 16203"><g class="cls-25"><g id="Group_16202" data-name="Group 16202"><path id="Path_15115" data-name="Path 15115" class="cls-26" d="M22.4,13.18,3.64,73.58l64.44,20,18.76-60.4Z"/></g></g></g></g></g></g></g></g><path id="Path_15120" data-name="Path 15120" class="cls-27" d="M73.37,12.17c.37-.79-4.61-3.82-9-5.66-6.19-2.63-8-1.56-8.52-1.23-1.15.77-2,2.33-1.59,3.26.55,1.17,3,.9,5.57.93C68.13,9.6,73,13,73.37,12.17"/><path id="Path_15121" data-name="Path 15121" class="cls-27" d="M31.26,13c4.93-2.08,8.6-1.32,9.18-3.22a2.76,2.76,0,0,0-1-2.68c-2.45-2-7.91,1.45-9.22,2.27-4.55,2.86-7.77,7.13-7.24,7.73S25.7,15.4,31.27,13"/><path id="Path_15122" data-name="Path 15122" class="cls-28" d="M42,30.67c-.16.76,4.54,3.58,9.4,2.66s8.35-5.5,7.91-6.14S56.16,29,50.69,30.08c-5.3,1-8.6,0-8.73.6"/><g class="cls-29"><g id="Group_16208" data-name="Group 16208"><g class="cls-30"><g id="Group_16207" data-name="Group 16207"><g class="cls-31"><g id="Group_16206" data-name="Group 16206"><path id="Path_15123" data-name="Path 15123" class="cls-32" d="M13,32.67V58.92H45.31V32.67Z"/></g></g></g></g></g></g><g class="cls-33"><g id="Group_16211" data-name="Group 16211"><g class="cls-34"><g id="Group_16210" data-name="Group 16210"><g class="cls-35"><g id="Group_16209" data-name="Group 16209"><path id="Path_15127" data-name="Path 15127" class="cls-36" d="M49.57,37.36V73.9h43.3V37.36Z"/></g></g></g></g></g></g><path id="Path_15131" data-name="Path 15131" class="cls-37" d="M39,21.19c.34,1.1,1,3.34-.3,4.85a5.05,5.05,0,0,1-3.25,1.39,4.91,4.91,0,0,1-3-.3c-2.16-1.14-2.05-4.35-2-5,0-.28.2-4.46,2.88-5.34a3.46,3.46,0,0,1,1.75-.09c2.72.52,3.75,3.88,3.95,4.5"/><path id="Path_15132" data-name="Path 15132" class="cls-38" d="M34.14,19.48a1.16,1.16,0,0,1-1.41.71,1.06,1.06,0,0,1-.44-1.42l0,0a1.15,1.15,0,0,1,1.41-.7,1,1,0,0,1,.44,1.41l0,0"/><path id="Path_15133" data-name="Path 15133" class="cls-37" d="M65.86,17.84c.28,1.11.87,3.4-.53,4.9A5.24,5.24,0,0,1,62,24.07a4.93,4.93,0,0,1-3-.37c-2.1-1.2-1.84-4.44-1.79-5.12,0-.28.42-4.5,3.13-5.33a3.42,3.42,0,0,1,1.74,0c2.69.58,3.56,4,3.73,4.63"/><path id="Path_15134" data-name="Path 15134" class="cls-38" d="M61.06,16a1.18,1.18,0,0,1-1.44.69,1.06,1.06,0,0,1-.37-1.44l0,0a1.17,1.17,0,0,1,1.44-.68A1,1,0,0,1,61.09,16l0,0"/></g></svg>