<svg id="Layer_1" data-name="Layer 1" xmlns="http://www.w3.org/2000/svg" xmlns:xlink="http://www.w3.org/1999/xlink" viewBox="0 0 108 76"><defs><style>.cls-1{filter:url(#blurMe);}.cls-2{fill:#f6c878;}.cls-3{fill:url(#linear-gradient);}.cls-4{fill:url(#linear-gradient-2);}.cls-5{fill:url(#linear-gradient-3);}.cls-6{stroke:#000;}</style><filter id="blurMe" name="blurMe"><feGaussianBlur stdDeviation="5" in="SourceGraphic"/></filter><linearGradient id="linear-gradient" x1="-907.8" y1="583.26" x2="-906.97" y2="582.58" gradientTransform="matrix(72, 0, 0, -76, 65383.56, 44337.26)" gradientUnits="userSpaceOnUse"><stop offset="0" stop-color="#ffca6d"/><stop offset="1" stop-color="#ffe2b1"/></linearGradient><linearGradient id="linear-gradient-2" x1="-912.69" y1="584.12" x2="-912.69" y2="583.12" gradientTransform="matrix(30.05, -9.77, -9.23, -28.4, 32847.87, 7678.44)" gradientUnits="userSpaceOnUse"><stop offset="0" stop-color="#ffa300"/><stop offset="1" stop-color="#e7b050"/></linearGradient><linearGradient id="linear-gradient-3" x1="-910.59" y1="578.63" x2="-910.59" y2="577.63" gradientTransform="matrix(30.05, 9.77, 9.23, -28.4, 22110.65, 25327.94)" xlink:href="#linear-gradient-2"/></defs><g id="_3" data-name=" 3"><g id="Ellipse_835" data-name="Ellipse 835" class="cls-1"><ellipse class="cls-2" cx="54" cy="42.27" rx="45" ry="26.5"/></g><ellipse id="Ellipse_476" data-name="Ellipse 476" class="cls-3" cx="54.73" cy="38" rx="36" ry="38"/><g id="noun-star-face-3946798"><g id="Polygon_9" data-name="Polygon 9"><path class="cls-4" d="M46.34,30.38l-9.85-1.74a2,2,0,0,0-1.79.58l-6.94,7.2-1.33-9.84A2,2,0,0,0,25.31,25l-9-4.3h0l9-4.34a2,2,0,0,0,1.11-1.53L27.82,5l6.92,7.17a2,2,0,0,0,1.79.58L46.38,11h0l-4.74,8.76a2,2,0,0,0,0,1.9l4.71,8.74Z"/><path d="M28.53,7.18,27.44,15a3,3,0,0,1-1.67,2.29l-7.14,3.44,7.11,3.4a3,3,0,0,1,1.68,2.3l1,7.8L34,28.52a3.05,3.05,0,0,1,1.23-.77,3,3,0,0,1,1.46-.1L44.48,29l-3.73-6.93a3,3,0,0,1,0-2.85l3.75-6.93-7.8,1.42A3,3,0,0,1,34,12.88l-5.49-5.7m-1-3.12a1,1,0,0,1,1,.25l6.92,7.18a1,1,0,0,0,.89.29L46.2,10a1,1,0,0,1,1.06,1.46l-4.74,8.76a1,1,0,0,0,0,.95l4.71,8.75a1,1,0,0,1-1,1.46l-9.85-1.75a1,1,0,0,0-.9.29l-6.94,7.21a1,1,0,0,1-1.71-.56l-1.33-9.85a1,1,0,0,0-.56-.77l-9-4.3a1,1,0,0,1,0-1.8l9-4.34a1,1,0,0,0,.56-.76l1.37-9.87A1,1,0,0,1,27.52,4.06Z"/></g><g id="Polygon_10" data-name="Polygon 10"><path class="cls-5" d="M63.13,30.38l4.7-8.75a2,2,0,0,0,0-1.9L63.09,11l9.85,1.78a2,2,0,0,0,1.79-.58L81.64,5,83,14.87a2,2,0,0,0,1.11,1.53l9,4.34h0l-9,4.3A2,2,0,0,0,83,26.58l-1.33,9.84h0l-6.94-7.2A2,2,0,0,0,74,28.7a2.14,2.14,0,0,0-1-.07l-9.85,1.75Z"/><path d="M80.94,7.18l-5.49,5.69a3,3,0,0,1-2.69.87L65,12.33l3.75,6.93a3,3,0,0,1,0,2.85L65,29l7.81-1.39a3,3,0,0,1,1.45.1,3,3,0,0,1,1.24.77L81,34.24l1-7.8a3,3,0,0,1,1.68-2.3l7.11-3.4L83.7,17.3A3,3,0,0,1,82,15L80.94,7.18m1-3.13a1,1,0,0,1,.68.82L84,14.73a1,1,0,0,0,.56.77l9,4.34a1,1,0,0,1,0,1.8l-9,4.3a1,1,0,0,0-.56.77L82.7,36.55a1,1,0,0,1-1.71.56l-6.94-7.2a1,1,0,0,0-.9-.29L63.3,31.37a1,1,0,0,1-1-1.46L67,21.16a1,1,0,0,0,0-.95l-4.74-8.76A1,1,0,0,1,63.27,10l9.84,1.79a1,1,0,0,0,.9-.29l6.91-7.18A1,1,0,0,1,82,4.05Z"/></g></g><path id="Path_15079" data-name="Path 15079" class="cls-6" d="M61.87,38H47.58a2.23,2.23,0,0,0-2.23,2.23V50.39a9.38,9.38,0,1,0,18.75,0V40.23A2.23,2.23,0,0,0,61.87,38ZM60,55.19a6.25,6.25,0,0,0,.78-1c-.22.33-.55.66-.78,1Zm0,.11h0l-.33.34c0-.12.11-.23.33-.34l-.56.56.11-.11a2.08,2.08,0,0,1-.78.56,7.08,7.08,0,0,1-4,1.22,3.11,3.11,0,0,1-1-.11,3.81,3.81,0,0,1-1.23-.33c-.33-.11-.55-.22-.89-.34.34.11.56.23.89.34a6.24,6.24,0,0,1-1.67-.89c-.11-.11-.34-.22-.45-.33l-.11-.12A8.07,8.07,0,0,1,48,52.52,31.3,31.3,0,0,1,61.87,51,8.62,8.62,0,0,1,60,55.31Z"/></g></svg>